# xmcd
#
# Track frame offsets:
#	150
#	14285
#	32454
#	48213
#	66891
#	81008
#	99133
#	114918
#
# Disc length: 1780 seconds
#
# Revision: 0
# Processed by: cddbd v1.5.2PL0 Copyright (c) Steve Scherf et al.
# Submitted via: audiograbber 1.83.01
#
DISCID=4e06f208
DTITLE=Craig Karaoke Country Hits 2 - CK506
DYEAR=1900
DGENRE=Karaoke
TTITLE0=Strait, George - She'll Leave YOu With A Smile
TTITLE1=Urban, Keith - Somebody Like You
TTITLE2=Wills, Mark - 19 Somethin'
TTITLE3=Worley, Darryl - Have You Forgotten?
TTITLE4=Strait, George - She'll Leave YOu With A Smile Vocals
TTITLE5=Urban, Keith - Somebody Like You Vocals
TTITLE6=Wills, Mark - 19 Somethin' Vocals
TTITLE7=Worley, Darryl - Have You Forgotten? Vocals
EXTD=
EXTT0=
EXTT1=
EXTT2=
EXTT3=
EXTT4=
EXTT5=
EXTT6=
EXTT7=
PLAYORDER=
